<?xml version="1.0" encoding="utf-8"?>
<!-- Generator: Adobe Illustrator 24.0.1, SVG Export Plug-In . SVG Version: 6.00 Build 0)  -->
<svg version="1.1" id="Layer_1" xmlns="http://www.w3.org/2000/svg" xmlns:xlink="http://www.w3.org/1999/xlink" x="0px" y="0px"
	 viewBox="0 0 143.5 50.6" style="enable-background:new 0 0 143.5 50.6;" xml:space="preserve">
<style type="text/css">
	.st0{fill:#433B8A;}
	.st1{fill:#7373FF;}
</style>
<g>
	<g>
		<path d="M80.4,25.7c-0.5-0.3-0.9-0.6-1.5-0.8s-1-0.4-1.6-0.5L75.9,24c-0.3-0.1-0.6-0.2-1-0.3c-0.3-0.1-0.6-0.3-0.9-0.5
			s-0.5-0.4-0.7-0.7c-0.2-0.3-0.3-0.6-0.3-1s0.1-0.8,0.4-1.2c0.3-0.4,0.6-0.6,1.1-0.8c0.5-0.2,1-0.3,1.7-0.3c0.9,0,1.7,0.2,2.3,0.6
			c0.6,0.4,0.9,1,1,1.7h2.3c0-0.9-0.3-1.6-0.7-2.3c-0.5-0.7-1.1-1.2-1.9-1.5c-0.8-0.4-1.8-0.6-2.8-0.6c-1.1,0-2,0.2-2.9,0.6
			c-0.8,0.4-1.5,0.9-2,1.6s-0.7,1.5-0.7,2.4c0,1.1,0.4,2,1.1,2.7s1.7,1.2,3,1.5l1.9,0.5c0.6,0.1,1.1,0.3,1.5,0.5
			c0.5,0.2,0.8,0.4,1.1,0.7c0.3,0.3,0.4,0.7,0.4,1.2s-0.2,1-0.5,1.3c-0.3,0.4-0.7,0.7-1.2,0.9c-0.5,0.2-1.1,0.3-1.8,0.3
			c-0.6,0-1.2-0.1-1.7-0.3c-0.5-0.2-0.9-0.5-1.3-0.8c-0.3-0.4-0.5-0.9-0.6-1.4h-2.4c0.1,1,0.3,1.8,0.8,2.5c0.5,0.7,1.2,1.2,2,1.6
			c0.9,0.4,1.9,0.6,3.1,0.6s2.3-0.2,3.2-0.6c0.9-0.4,1.5-1,2-1.6c0.5-0.7,0.7-1.5,0.7-2.4c0-0.7-0.1-1.3-0.4-1.8S80.9,26,80.4,25.7"
			/>
		<polygon points="87.6,26.3 94.6,26.3 94.6,24.2 87.6,24.2 87.6,19.4 95.2,19.4 95.2,17.4 85.2,17.4 85.2,33.2 95.3,33.2 
			95.3,31.1 87.6,31.1 		"/>
		<path d="M103.3,17.4l-5.7,15.8h2.5l1.5-4.2h6.2l1.4,4.2h2.5L106,17.4C106,17.4,103.3,17.4,103.3,17.4z M102.3,27l2.3-6.8h0.1
			L107,27H102.3z"/>
		<path d="M123.7,18.3c-1.1-0.6-2.4-0.9-4-0.9h-5.3v15.8h5.1c1.6,0,3-0.3,4.1-1c1.1-0.6,2-1.5,2.6-2.7s0.9-2.6,0.9-4.2
			s-0.3-3.1-0.9-4.2C125.7,19.8,124.8,18.9,123.7,18.3 M124.2,28.4c-0.4,0.9-1,1.5-1.8,2s-1.8,0.7-3,0.7h-2.6V19.4h2.8
			c1.2,0,2.1,0.2,2.9,0.7c0.8,0.4,1.4,1.1,1.8,2s0.6,1.9,0.6,3.2C124.8,26.5,124.6,27.6,124.2,28.4"/>
		<path d="M141.3,27c-0.3-0.5-0.6-0.9-1.1-1.3c-0.5-0.3-0.9-0.6-1.5-0.8s-1-0.4-1.6-0.5l-1.5-0.4c-0.3-0.1-0.6-0.2-1-0.3
			c-0.3-0.1-0.6-0.3-0.9-0.5c-0.3-0.2-0.5-0.4-0.7-0.7c-0.2-0.3-0.3-0.6-0.3-1s0.1-0.8,0.4-1.2c0.3-0.4,0.6-0.6,1.1-0.8
			c0.5-0.2,1-0.3,1.7-0.3c0.9,0,1.7,0.2,2.3,0.6s0.9,1,1,1.7h2.3c0-0.9-0.3-1.6-0.7-2.3c-0.5-0.7-1.1-1.2-1.9-1.5
			c-0.8-0.4-1.8-0.6-2.8-0.6c-1.1,0-2,0.2-2.9,0.6c-0.8,0.4-1.5,0.9-2,1.6s-0.7,1.5-0.7,2.4c0,1.1,0.4,2,1.1,2.7
			c0.7,0.7,1.7,1.2,3,1.5l1.9,0.5c0.6,0.2,1.1,0.3,1.5,0.5c0.5,0.2,0.8,0.4,1.1,0.7c0.3,0.3,0.4,0.7,0.4,1.2s-0.2,1-0.5,1.3
			c-0.3,0.4-0.7,0.7-1.2,0.9c-0.5,0.2-1.1,0.3-1.8,0.3c-0.6,0-1.2-0.1-1.7-0.3c-0.5-0.2-0.9-0.5-1.3-0.8c-0.3-0.4-0.5-0.9-0.6-1.4
			H130c0.1,1,0.3,1.8,0.8,2.5s1.2,1.2,2,1.6c0.9,0.4,1.9,0.6,3.1,0.6c1.2,0,2.3-0.2,3.2-0.6c0.9-0.4,1.5-1,2-1.6
			c0.5-0.7,0.7-1.5,0.7-2.4C141.7,28.1,141.6,27.5,141.3,27"/>
	</g>
	<g>
		<rect x="17.7" y="1.3" class="st0" width="28" height="16"/>
		<path class="st1" d="M1.7,17.3c0,8.8,7.2,16,16,16v-16v-16C8.9,1.3,1.7,8.5,1.7,17.3"/>
		<path class="st1" d="M45.7,17.3v16v16c8.8,0,16-7.2,16-16S54.5,17.3,45.7,17.3"/>
		<rect x="17.7" y="33.3" class="st0" width="28" height="16"/>
	</g>
</g>
</svg>
